{"glyphs":{":":{"x_min":0,"x_max":280,"ha":280,"o":"m 149 -7 q 114 -7 96 14 q 79 34 79 69 q 79 146 149 146 q 219 146 219 70 q 219 -7 149 -7 z m 149 308 q 114 308 96 328 q 79 349 79 384 q 79 461 149 461 q 219 461 219 384 q 219 308 149 308 z"},"$":{"x_min":0,"x_max":543,"ha":543,"o":"m 70 150 q 70 181 90 200 q 109 220 142 220 q 176 220 192 191 q 184 170 184 147 q 184 124 204 106 q 224 87 257 82 l 257 288 q 160 324 120 364 q 81 405 81 470 q 81 536 130 580 q 179 625 257 633 l 257 735 l 271 743 l 317 737 l 317 633 q 387 627 434 595 q 481 563 481 520 q 481 491 466 473 q 450 455 420 455 q 390 455 357 482 q 379 507 379 530 q 379 575 317 586 l 317 403 q 410 360 449 316 q 488 272 488 202 q 488 133 442 88 q 396 44 317 35 l 317 -62 l 307 -73 l 257 -64 l 257 33 q 70 41 70 150 z m 199 517 q 199 488 212 468 q 225 448 257 430 l 257 584 q 199 568 199 517 z m 317 89 q 363 110 363 164 q 363 218 317 254 z"},"<":{"x_min":0,"x_max":592,"ha":592,"o":"m 64 222 l 64 349 l 506 524 l 540 431 l 159 285 l 540 140 l 506 47 z"},"'":{"x_min":0,"x_max":251,"ha":251,"o":"m 98 460 q 70 616 70 645 q 70 674 85 688 q 100 703 124 703 q 147 703 162 688 q 178 674 178 654 q 178 620 157 500 l 150 460 z"},"=":{"x_min":0,"x_max":592,"ha":592,"o":"m 61 145 l 61 240 l 530 240 l 530 145 z m 61 332 l 61 427 l 530 427 l 530 332 z"},"a":{"x_min":0,"x_max":535,"ha":535,"o":"m 172 -7 q 103 -7 66 25 q 29 57 29 118 q 29 251 226 265 l 314 271 l 314 329 q 314 399 298 426 q 281 453 246 453 q 212 453 194 438 q 175 424 175 400 q 175 377 197 360 q 192 335 173 320 q 154 305 124 305 q 94 305 72 326 q 50 347 50 378 q 50 431 100 462 q 151 492 240 492 q 455 492 455 334 l 455 62 q 472 43 515 35 l 511 0 l 331 0 l 321 57 q 257 -7 172 -7 z m 161 134 q 161 58 221 58 q 267 58 314 113 l 314 222 l 264 218 q 209 214 185 193 q 161 172 161 134 z"},"L":{"x_min":0,"x_max":551,"ha":551,"o":"m 246 62 l 421 62 q 453 110 468 189 q 488 192 507 192 q 526 192 542 189 l 532 0 l 38 0 l 42 41 q 81 47 99 66 l 99 596 q 83 610 37 626 l 42 667 l 321 667 l 315 626 q 272 618 246 596 z"},"3":{"x_min":0,"x_max":592,"ha":592,"o":"m 200 319 l 200 381 q 347 393 347 507 q 347 621 280 621 q 243 621 224 595 q 206 569 206 534 q 206 499 220 473 q 192 443 150 443 q 108 443 86 467 q 64 491 64 535 q 64 579 102 614 q 169 678 276 678 q 384 678 446 631 q 507 584 507 508 q 507 393 376 351 q 458 333 491 292 q 524 251 524 181 q 524 91 448 42 q 372 -8 278 -8 q 183 -8 120 29 q 58 66 58 130 q 58 167 80 188 q 102 208 136 208 q 169 208 204 181 q 195 162 195 132 q 195 103 214 83 q 234 63 273 63 q 359 63 359 182 q 359 247 318 283 q 276 319 200 319 z"},";":{"x_min":0,"x_max":280,"ha":280,"o":"m 149 308 q 114 308 96 328 q 79 349 79 384 q 79 461 149 461 q 219 461 219 384 q 219 308 149 308 z m 85 23 q 63 44 63 72 q 63 101 82 120 q 102 140 138 140 q 173 140 194 116 q 215 93 215 53 q 215 -68 90 -140 l 62 -105 q 93 -82 112 -54 q 131 -25 131 2 q 131 28 105 28 q 97 28 85 23 z"},"J":{"x_min":0,"x_max":341,"ha":341,"o":"m 241 16 q 241 -80 182 -135 q 124 -190 13 -218 l -8 -163 q 94 -110 94 1 l 94 596 q 72 618 18 626 l 23 667 l 316 667 l 310 626 q 267 618 241 596 z"},"V":{"x_min":0,"x_max":634,"ha":634,"o":"m 274 627 q 232 625 212 605 l 348 185 l 494 597 q 468 620 415 627 l 420 667 l 641 667 l 636 627 q 589 625 573 601 l 353 0 l 252 0 l 65 585 q 52 617 1 627 l 6 667 l 280 667 z"},"\"":{"x_min":0,"x_max":422,"ha":422,"o":"m 98 460 q 70 616 70 645 q 70 674 85 688 q 100 703 124 703 q 147 703 162 688 q 178 674 178 654 q 178 620 157 500 l 150 460 z m 272 460 q 244 616 244 645 q 244 674 259 688 q 274 703 298 703 q 321 703 336 688 q 352 674 352 654 q 352 620 331 500 l 324 460 z"},"7":{"x_min":0,"x_max":592,"ha":592,"o":"m 294 667 l 522 668 l 552 616 l 304 0 l 159 0 l 398 578 l 181 578 q 170 538 167 481 q 149 478 130 478 q 110 478 91 481 q 86 516 74 581 q 63 646 63 653 l 79 668 z"},"S":{"x_min":0,"x_max":513,"ha":513,"o":"m 168 64 q 212 48 252 48 q 292 48 317 74 q 342 99 342 136 q 342 172 326 198 q 309 225 283 243 q 257 261 226 278 q 194 295 162 314 q 131 334 105 356 q 79 379 62 414 q 46 449 46 492 q 46 571 108 623 q 171 675 266 675 q 312 675 372 660 q 431 646 470 625 l 456 487 q 433 480 420 480 q 406 480 384 484 q 371 559 344 592 q 318 624 274 624 q 229 624 204 601 q 179 578 179 546 q 179 513 202 488 q 224 462 258 442 q 292 423 332 397 q 371 371 405 344 q 439 318 462 276 q 484 233 484 183 q 484 95 419 44 q 354 -7 243 -7 q 196 -7 132 10 q 67 26 45 44 l 45 196 q 85 210 136 213 q 142 125 168 64 z"},"}":{"x_min":0,"x_max":393,"ha":393,"o":"m 277 19 q 277 -64 216 -114 q 154 -165 52 -165 l 52 -112 q 106 -109 138 -75 q 171 -41 171 12 q 171 40 158 88 q 144 135 144 164 q 144 246 200 284 q 144 321 144 404 q 144 433 158 480 q 171 528 171 556 q 171 609 138 642 q 106 676 52 680 l 52 733 q 154 733 216 682 q 277 632 277 549 q 277 529 264 468 q 251 407 251 383 q 251 359 266 341 q 282 323 298 318 l 313 314 l 313 254 q 290 251 270 230 q 251 209 251 185 q 251 161 264 100 q 277 39 277 19 z"},"Z":{"x_min":0,"x_max":566,"ha":566,"o":"m 526 -2 l 261 0 q 69 0 32 -2 l 28 45 l 354 609 l 161 609 q 141 584 125 485 q 109 482 88 482 q 66 482 40 490 l 28 637 l 65 669 q 111 667 280 667 q 449 667 525 669 l 535 631 l 200 59 l 408 59 q 440 105 460 190 q 476 194 499 194 q 522 194 535 191 z"},"x":{"x_min":0,"x_max":525,"ha":525,"o":"m 315 54 l 233 170 l 138 59 q 163 45 195 39 l 189 0 l 5 0 l 12 41 q 40 43 51 55 l 195 223 l 55 421 q 44 436 9 444 l 15 483 l 257 483 l 250 442 q 223 439 211 429 l 287 322 l 369 424 q 353 439 323 444 l 329 484 l 508 484 l 502 443 q 467 441 455 427 l 325 268 l 472 62 q 484 45 517 39 l 511 0 l 268 0 l 276 41 q 299 41 315 54 z"},")":{"x_min":0,"x_max":408,"ha":408,"o":"m 29 705 l 54 730 q 142 677 212 584 q 315 447 315 282 q 315 161 263 62 q 216 -27 156 -83 q 100 -137 68 -156 l 54 -165 l 29 -139 q 198 23 198 283 q 198 543 29 705 z"},"&":{"x_min":0,"x_max":740,"ha":740,"o":"m 32 196 q 32 340 166 386 q 81 424 81 518 q 81 599 146 643 q 210 687 302 687 q 404 687 466 638 q 503 610 503 572 q 503 533 480 506 q 456 480 422 480 q 387 480 362 504 q 378 533 378 560 q 378 588 358 606 q 339 623 304 623 q 269 623 249 597 q 229 571 229 528 q 229 486 248 457 q 268 428 312 427 l 312 344 q 252 335 216 296 q 179 258 179 192 q 179 125 221 86 q 263 47 325 47 q 421 47 470 108 q 520 169 520 261 q 520 320 500 378 q 463 375 463 332 q 463 306 478 288 q 451 269 418 269 q 385 269 366 288 q 346 308 346 339 q 346 443 521 443 q 570 443 591 454 q 612 464 612 488 q 612 513 593 530 q 618 549 652 549 q 687 549 706 532 q 726 515 726 488 q 726 408 602 390 q 620 332 620 275 q 620 154 542 74 q 464 -6 316 -6 q 198 -6 115 48 q 32 102 32 196 z"},"_":{"x_min":0,"x_max":371,"ha":371,"o":"m 371 -122 l 0 -122 l 0 -48 l 371 -48 z"},"v":{"x_min":0,"x_max":531,"ha":531,"o":"m 307 0 l 204 0 l 60 407 q 48 441 -2 449 l 0 484 l 262 484 l 257 449 q 223 447 200 430 l 299 151 l 409 427 q 386 442 344 449 l 348 484 l 534 484 l 530 449 q 495 447 478 425 z"},"(":{"x_min":0,"x_max":408,"ha":408,"o":"m 186 570 q 266 675 327 713 l 354 730 l 379 705 q 210 543 210 283 q 210 23 379 -139 l 354 -165 q 321 -147 270 -100 q 218 -52 184 -4 q 149 43 121 120 q 93 198 93 282 q 93 366 120 443 q 147 520 186 570 z"},"C":{"x_min":0,"x_max":573,"ha":573,"o":"m 335 -10 q 194 -10 120 75 q 47 160 47 329 q 47 498 120 586 q 192 674 334 674 q 425 674 482 637 q 539 600 539 542 q 539 506 516 481 q 493 456 464 456 q 435 456 414 469 q 392 482 382 502 q 398 529 398 557 q 398 585 380 603 q 361 621 330 621 q 212 621 212 342 q 212 201 249 130 q 286 58 368 58 q 450 58 520 133 l 553 101 q 506 48 448 19 q 391 -10 335 -10 z"},"W":{"x_min":0,"x_max":961,"ha":961,"o":"m 470 667 l 558 667 l 696 185 l 822 596 q 797 620 742 627 l 747 667 l 968 667 l 963 627 q 916 625 901 602 l 701 0 l 600 0 l 472 430 l 333 0 l 232 0 l 61 593 q 47 617 1 627 l 6 667 l 280 667 l 274 627 q 233 625 211 605 l 328 185 z"},"A":{"x_min":0,"x_max":652,"ha":652,"o":"m 439 65 l 392 208 l 186 208 l 138 70 q 166 47 223 40 l 218 0 l -8 0 l -2 40 q 44 42 59 65 l 272 667 l 376 667 l 591 74 q 607 48 652 40 l 647 0 l 373 0 l 379 40 q 425 47 439 65 z m 293 511 l 208 271 l 371 271 z"},"f":{"x_min":0,"x_max":326,"ha":326,"o":"m 400 562 l 327 562 q 320 621 306 646 q 292 670 266 670 q 239 670 224 648 q 208 625 208 598 q 208 572 218 534 q 228 495 228 478 l 332 478 l 332 415 l 228 415 l 228 62 q 251 45 314 34 l 311 0 l 17 0 l 21 36 q 63 43 87 62 l 87 415 l 8 415 l 3 455 q 54 463 87 478 l 87 522 q 87 605 138 657 q 190 709 266 709 q 341 709 400 672 z"},"w":{"x_min":0,"x_max":798,"ha":798,"o":"m 294 0 l 191 0 l 59 418 q 44 441 2 449 l 4 484 l 266 484 l 261 449 q 225 447 202 428 l 280 154 l 393 484 l 483 484 l 578 153 l 671 427 q 648 442 607 449 l 611 484 l 797 484 l 793 449 q 755 447 739 421 l 592 0 l 489 0 l 398 298 z"},"-":{"x_min":0,"x_max":337,"ha":337,"o":"m 53 219 l 53 314 l 284 314 l 284 219 z"},"E":{"x_min":0,"x_max":578,"ha":578,"o":"m 531 502 q 508 495 494 495 q 479 495 457 499 q 442 568 414 606 l 246 606 l 246 369 l 339 376 q 357 378 372 396 q 388 414 395 443 l 447 443 l 447 236 l 395 236 q 381 276 368 292 q 355 308 338 310 l 246 318 l 246 62 l 421 62 q 453 110 468 189 q 489 192 508 192 q 526 192 542 189 l 532 0 l 38 0 l 42 41 q 81 47 99 66 l 99 601 q 75 622 38 630 l 41 667 l 527 667 z"},"s":{"x_min":0,"x_max":459,"ha":459,"o":"m 235 448 q 206 448 188 429 q 170 410 170 382 q 170 353 194 334 q 218 316 286 292 q 421 244 421 142 q 421 71 367 32 q 313 -8 216 -8 q 177 -8 122 8 q 68 25 39 45 l 39 155 l 142 170 q 143 137 150 100 q 156 64 163 51 q 192 42 220 42 q 248 42 268 61 q 288 80 288 109 q 288 166 200 196 q 113 225 76 263 q 40 301 40 362 q 40 422 92 458 q 143 493 235 493 q 279 493 323 484 q 367 476 388 468 l 410 460 l 400 335 l 322 335 q 322 383 300 416 q 278 448 235 448 z"},">":{"x_min":0,"x_max":592,"ha":592,"o":"m 540 349 l 540 222 l 98 47 l 64 140 l 445 285 l 64 431 l 98 524 z"},"l":{"x_min":0,"x_max":308,"ha":308,"o":"m 83 558 q 83 595 70 608 q 56 622 21 624 l 24 663 q 37 666 78 672 q 175 688 207 697 l 225 687 l 225 66 q 248 47 288 39 l 285 0 l 27 0 l 31 41 q 64 48 83 66 z"},"8":{"x_min":0,"x_max":592,"ha":592,"o":"m 522 513 q 522 472 492 431 q 462 390 413 364 q 475 334 510 294 q 546 254 546 191 q 546 100 480 46 q 414 -7 296 -7 q 179 -7 112 42 q 46 91 46 182 q 46 229 76 276 q 106 322 160 358 q 65 411 65 505 q 65 585 127 632 q 189 679 294 679 q 398 679 460 634 q 522 589 522 513 z m 340 278 q 301 299 252 317 q 194 272 194 188 q 194 129 223 96 q 252 62 302 62 q 351 62 378 95 q 406 128 406 186 q 406 243 340 278 z m 323 403 q 348 420 363 450 q 378 480 378 518 q 378 557 354 582 q 331 608 292 608 q 253 608 230 582 q 207 557 207 516 q 207 476 236 452 q 266 427 323 403 z"},"\\":{"x_min":0,"x_max":505,"ha":505,"o":"m 423 -112 l 349 -140 l 39 672 l 113 700 z"},"e":{"x_min":0,"x_max":531,"ha":531,"o":"m 186 243 l 186 227 q 186 143 210 102 q 234 62 300 62 q 384 62 438 117 l 478 78 q 437 37 392 15 q 348 -7 276 -7 q 160 -7 102 58 q 43 124 43 240 q 43 357 105 424 q 167 492 282 492 q 396 492 443 440 q 490 388 496 285 l 468 243 z m 280 443 q 189 443 186 283 l 354 291 q 354 371 338 407 q 322 443 280 443 z"},"b":{"x_min":0,"x_max":591,"ha":591,"o":"m 224 425 q 268 492 358 492 q 449 492 496 432 q 544 372 544 250 q 544 129 484 61 q 425 -7 318 -7 q 242 -7 184 25 l 158 0 l 83 0 l 83 558 q 83 595 70 608 q 56 622 21 624 l 23 663 q 166 685 207 697 l 224 687 z m 315 432 q 272 432 248 390 q 224 348 224 268 l 224 65 q 251 46 290 46 q 398 46 398 256 q 398 432 315 432 z"},"m":{"x_min":0,"x_max":890,"ha":890,"o":"m 379 329 q 379 425 318 425 q 263 425 231 370 l 231 66 q 254 48 291 39 l 287 0 l 34 0 l 37 41 q 69 47 90 66 l 90 354 q 90 390 76 404 q 62 417 27 419 l 30 458 q 180 486 201 492 l 219 483 l 227 425 q 283 492 370 492 q 470 492 506 410 q 560 492 660 492 q 728 492 769 451 q 810 410 810 338 l 810 66 q 835 47 874 39 l 870 0 l 617 0 l 620 39 q 648 45 669 66 l 669 329 q 669 425 608 425 q 581 425 556 408 q 532 392 518 365 q 520 347 520 338 l 520 66 q 542 48 580 39 l 576 0 l 327 0 l 330 39 q 358 45 379 66 z"},"#":{"x_min":0,"x_max":618,"ha":618,"o":"m 84 346 l 96 426 l 196 426 l 231 588 l 309 570 l 277 426 l 387 426 l 422 588 l 500 570 l 468 426 l 585 426 l 573 346 l 451 346 l 427 237 l 533 237 l 521 157 l 410 157 l 372 -18 l 294 0 l 328 157 l 219 157 l 181 -18 l 103 0 l 137 157 l 32 157 l 44 237 l 154 237 l 178 346 z m 260 346 l 236 237 l 345 237 l 369 346 z"},",":{"x_min":0,"x_max":232,"ha":232,"o":"m 57 23 q 35 44 35 72 q 35 101 54 120 q 74 140 110 140 q 145 140 166 116 q 187 93 187 53 q 187 -68 62 -140 l 34 -105 q 65 -82 84 -54 q 103 -25 103 2 q 103 28 77 28 q 69 28 57 23 z"},"n":{"x_min":0,"x_max":604,"ha":604,"o":"m 382 329 q 382 425 320 425 q 294 425 270 410 q 245 395 231 370 l 231 66 q 254 48 291 39 l 287 0 l 34 0 l 37 41 q 69 47 90 66 l 90 354 q 90 390 76 404 q 62 417 27 419 l 30 458 q 180 486 201 492 l 219 483 l 227 425 q 284 492 374 492 q 442 492 482 451 q 523 410 523 338 l 523 66 q 548 47 587 39 l 583 0 l 330 0 l 333 39 q 363 45 382 66 z"},"h":{"x_min":0,"x_max":597,"ha":597,"o":"m 83 559 q 83 596 70 610 q 56 623 21 625 l 24 664 q 37 667 78 674 q 175 689 207 698 l 225 688 l 225 429 q 281 492 367 492 q 435 492 476 451 q 517 410 517 338 l 517 66 q 540 47 580 39 l 577 0 l 323 0 l 326 39 q 356 45 375 66 l 375 329 q 375 425 313 425 q 258 425 225 371 l 225 67 q 245 50 285 40 l 281 1 l 27 1 l 31 42 q 64 49 83 67 z"},"z":{"x_min":0,"x_max":479,"ha":479,"o":"m 438 -1 q 314 0 204 0 q 94 0 42 -2 l 38 42 l 277 430 l 161 430 q 149 408 139 340 q 115 336 94 336 q 74 336 47 345 l 38 456 l 75 486 q 109 484 244 484 q 378 484 435 486 l 445 449 l 199 56 l 325 56 q 344 87 359 154 q 384 160 401 160 q 418 160 445 155 z"},"B":{"x_min":0,"x_max":651,"ha":651,"o":"m 325 667 q 456 667 525 624 q 594 582 594 501 q 594 391 472 359 q 542 338 580 294 q 617 249 617 188 q 617 100 545 50 q 473 0 347 0 l 39 0 l 43 41 q 77 48 100 71 l 100 596 q 82 614 39 628 l 43 667 z m 301 320 l 247 320 l 247 65 q 286 62 315 62 q 388 62 422 92 q 457 122 457 187 q 457 320 301 320 z m 439 499 q 439 551 406 578 q 373 606 324 606 q 274 606 247 602 l 247 383 l 302 383 q 439 383 439 499 z"},"K":{"x_min":0,"x_max":682,"ha":682,"o":"m 314 39 l 307 0 l 31 0 l 35 41 q 68 47 92 71 l 92 596 q 71 614 31 628 l 35 667 l 314 667 l 308 626 q 265 618 239 596 l 239 71 q 262 50 314 39 z m 463 581 q 472 592 472 603 q 472 614 457 621 q 442 628 420 628 l 414 667 l 664 667 l 658 628 q 602 625 570 589 l 398 398 l 595 76 q 627 50 681 41 l 674 0 l 446 0 q 445 32 428 58 l 253 348 z"},"R":{"x_min":0,"x_max":662,"ha":662,"o":"m 324 667 q 580 667 580 491 q 580 363 450 320 q 482 298 502 254 l 577 76 q 587 53 638 41 l 631 0 l 449 0 l 352 262 q 339 294 298 300 q 281 300 257 302 l 246 302 l 246 71 q 267 50 321 39 l 314 0 l 38 0 l 42 41 q 76 48 99 71 l 99 596 q 80 614 38 628 l 42 667 z m 425 489 q 425 545 395 576 q 365 606 318 606 q 271 606 246 602 l 246 363 l 311 363 q 425 363 425 489 z"},"T":{"x_min":0,"x_max":639,"ha":639,"o":"m 107 483 q 89 480 72 480 q 54 480 38 483 l 38 671 q 185 667 365 667 q 545 667 601 671 l 601 483 q 584 480 567 480 q 550 480 532 483 q 524 553 496 598 q 446 605 393 606 l 393 71 q 414 51 468 41 l 461 0 l 170 0 l 174 41 q 217 47 246 71 l 246 605 q 224 604 145 599 q 109 549 107 483 z"},"P":{"x_min":0,"x_max":614,"ha":614,"o":"m 325 667 q 586 667 586 481 q 586 384 515 332 q 444 280 311 280 q 289 280 247 283 l 247 71 q 268 50 322 39 l 315 0 l 39 0 l 43 41 q 77 48 100 71 l 100 596 q 81 614 39 628 l 43 667 z m 431 479 q 431 540 400 573 q 368 606 320 606 q 272 606 247 602 l 247 343 l 312 343 q 431 343 431 479 z"},"|":{"x_min":0,"x_max":320,"ha":320,"o":"m 210 -151 l 110 -151 l 110 758 l 210 758 z"},"t":{"x_min":0,"x_max":365,"ha":365,"o":"m 202 -4 q 148 -4 114 25 q 80 54 80 113 l 80 413 l 9 413 l 9 459 q 113 498 158 584 l 223 584 l 223 478 l 351 478 l 351 413 l 222 413 l 222 121 q 222 68 270 68 q 306 68 342 93 l 362 58 q 293 -4 202 -4 z"},"M":{"x_min":0,"x_max":846,"ha":846,"o":"m 823 39 l 816 0 l 545 0 l 549 41 q 583 48 605 71 l 605 508 l 442 0 l 365 0 l 186 481 l 186 71 q 209 50 261 39 l 254 0 l 38 0 l 42 41 q 75 47 99 71 l 99 596 q 78 614 38 628 l 42 667 l 268 667 l 431 217 l 571 667 l 815 667 l 809 628 q 770 616 748 596 l 748 71 q 771 50 823 39 z"},"y":{"x_min":0,"x_max":531,"ha":531,"o":"m 126 -101 q 115 -110 115 -131 q 115 -162 142 -162 q 159 -162 174 -143 q 188 -124 207 -76 l 237 0 l 203 0 l 59 407 q 47 440 -3 449 l -1 484 l 261 484 l 256 449 q 219 448 199 430 l 298 151 l 408 427 q 385 442 343 449 l 347 484 l 533 484 l 529 449 q 485 447 477 425 l 264 -103 q 238 -166 206 -193 q 174 -220 124 -220 q 74 -220 46 -200 q 18 -180 18 -146 q 18 -113 34 -95 q 50 -77 78 -77 q 105 -77 126 -101 z"},"@":{"x_min":0,"x_max":921,"ha":921,"o":"m 635 341 l 635 147 q 635 119 644 102 q 654 85 670 85 q 687 85 703 104 q 719 123 726 153 q 742 207 742 298 q 742 435 665 512 q 588 589 454 589 q 321 589 238 494 q 155 400 155 250 q 155 99 234 4 q 314 -91 441 -91 q 536 -91 600 -53 l 632 -100 q 549 -152 441 -152 q 255 -152 145 -43 q 35 66 35 245 q 35 424 152 534 q 269 645 454 645 q 638 645 750 550 q 862 455 862 298 q 862 177 804 102 q 747 28 646 28 q 545 28 517 99 q 457 32 378 32 q 318 32 286 61 q 254 90 254 145 q 254 264 432 278 l 508 284 l 508 337 q 508 399 493 424 q 478 449 440 449 q 417 449 402 436 q 386 422 386 401 q 386 380 407 365 q 402 342 384 328 q 367 315 340 315 q 313 315 293 334 q 273 353 273 381 q 273 429 318 456 q 363 484 440 484 q 635 484 635 341 z m 373 155 q 373 91 423 91 q 465 91 508 141 l 508 240 l 462 236 q 415 231 394 212 q 373 194 373 155 z"},".":{"x_min":0,"x_max":232,"ha":232,"o":"m 117 -4 q 82 -4 64 16 q 47 37 47 72 q 47 149 117 149 q 187 149 187 72 q 187 -4 117 -4 z"},"p":{"x_min":0,"x_max":597,"ha":597,"o":"m 223 416 q 266 492 360 492 q 454 492 502 432 q 550 372 550 250 q 550 127 492 60 q 435 -7 329 -7 q 275 -7 229 17 l 229 -145 q 259 -164 303 -172 l 299 -211 l 32 -211 l 36 -170 q 69 -163 88 -145 l 88 354 q 88 390 74 404 q 61 417 26 419 l 29 458 q 171 485 195 492 l 213 483 z m 321 432 q 278 432 254 390 q 229 348 229 268 l 229 66 q 255 46 295 46 q 403 46 403 256 q 403 432 321 432 z"},"X":{"x_min":0,"x_max":619,"ha":619,"o":"m 69 65 l 238 315 l 58 604 q 44 619 7 627 l 12 667 l 286 667 l 280 627 q 244 626 224 606 l 332 432 l 441 595 q 419 617 372 624 l 377 664 l 598 664 l 593 624 q 546 622 530 599 l 373 365 l 563 61 q 579 46 614 40 l 609 0 l 335 0 l 341 40 q 378 42 397 61 l 280 248 l 159 68 q 182 47 228 40 l 223 0 l 2 0 l 7 40 q 54 42 69 65 z"},"*":{"x_min":0,"x_max":453,"ha":453,"o":"m 192 408 q 179 389 162 389 q 145 389 134 400 q 123 410 123 425 q 123 440 133 450 q 143 459 164 474 q 184 489 199 512 q 171 509 142 496 q 114 484 102 484 q 89 484 79 494 q 69 505 69 521 q 69 537 79 547 q 89 557 102 557 q 114 557 142 544 q 171 531 200 528 q 185 549 164 564 q 144 580 134 590 q 123 601 123 616 q 123 630 134 640 q 145 651 164 651 q 183 651 189 638 q 195 626 199 594 q 203 563 214 538 q 230 572 234 620 q 236 651 268 651 q 284 651 294 640 q 305 630 305 612 q 305 595 275 573 q 245 551 229 529 q 255 532 284 544 q 314 557 326 557 q 339 557 350 547 q 360 537 360 521 q 360 505 350 494 q 339 484 326 484 q 313 484 284 496 q 254 509 228 512 q 244 490 264 475 q 285 460 295 450 q 305 441 305 426 q 305 410 294 400 q 283 389 264 389 q 244 389 239 400 q 234 411 231 443 q 228 475 214 504 q 202 477 199 446 q 196 415 192 408 z"},"Y":{"x_min":0,"x_max":604,"ha":604,"o":"m 65 593 q 52 617 5 627 l 10 667 l 281 667 l 275 627 q 233 625 213 605 l 332 357 l 454 597 q 428 620 374 627 l 379 667 l 603 667 l 598 627 q 554 625 538 605 l 367 268 l 367 71 q 390 50 442 39 l 435 0 l 159 0 l 163 41 q 202 47 220 66 l 220 269 z"},"c":{"x_min":0,"x_max":469,"ha":469,"o":"m 464 68 q 392 -7 278 -7 q 164 -7 104 55 q 44 117 44 238 q 44 360 104 424 q 165 489 280 489 q 357 489 406 460 q 454 432 454 387 q 454 358 432 338 q 409 318 381 318 q 353 318 334 330 q 314 342 308 360 q 320 378 320 398 q 320 419 306 431 q 292 443 271 443 q 191 443 191 248 q 191 141 218 96 q 244 51 307 51 q 370 51 428 104 z"},"/":{"x_min":0,"x_max":505,"ha":505,"o":"m 141 -140 l 67 -112 l 377 700 l 451 672 z"},"[":{"x_min":0,"x_max":368,"ha":368,"o":"m 110 738 l 323 738 l 323 684 l 210 672 l 210 -106 l 323 -118 l 323 -172 l 110 -172 z"},"6":{"x_min":0,"x_max":592,"ha":592,"o":"m 329 386 q 429 386 486 332 q 544 278 544 188 q 544 99 477 44 q 410 -11 298 -11 q 185 -11 122 55 q 58 121 58 246 q 58 403 161 520 q 264 636 438 681 l 462 631 q 351 583 297 525 q 243 467 220 358 q 276 386 329 386 z m 210 282 l 210 269 q 210 160 234 109 q 258 58 306 58 q 399 58 399 185 q 399 247 374 282 q 348 316 304 316 q 260 316 210 282 z"},"r":{"x_min":0,"x_max":461,"ha":461,"o":"m 90 354 q 90 390 76 404 q 62 417 27 419 l 30 458 q 180 486 201 492 l 219 483 l 227 417 q 278 491 356 491 q 395 491 424 464 q 452 438 452 400 q 452 363 432 342 q 411 322 382 322 q 353 322 335 347 q 349 364 349 380 q 349 396 336 406 q 322 416 303 416 q 284 416 264 398 q 243 381 231 353 l 231 66 q 254 48 291 39 l 287 0 l 34 0 l 37 41 q 69 47 90 66 z"},"2":{"x_min":0,"x_max":592,"ha":592,"o":"m 512 98 l 512 0 l 59 0 l 59 58 q 223 216 286 314 q 349 413 349 517 q 349 621 277 621 q 245 621 225 592 q 205 562 205 526 q 205 489 226 462 q 190 428 150 428 q 109 428 85 450 q 61 473 61 516 q 61 587 120 632 q 180 678 280 678 q 354 678 406 652 q 505 602 505 486 q 505 406 444 316 q 383 225 243 98 z"},"{":{"x_min":0,"x_max":393,"ha":393,"o":"m 116 549 q 116 632 178 682 q 239 733 341 733 l 341 680 q 287 676 254 642 q 222 609 222 556 q 222 528 236 480 q 249 433 249 404 q 249 321 193 284 q 249 246 249 164 q 249 135 236 88 q 222 40 222 12 q 222 -41 254 -75 q 287 -109 341 -112 l 341 -165 q 239 -165 178 -114 q 116 -64 116 19 q 116 39 129 100 q 142 161 142 185 q 142 209 126 227 q 111 245 96 250 l 80 254 l 80 314 q 103 317 122 338 q 142 359 142 383 q 142 407 129 468 q 116 529 116 549 z"},"9":{"x_min":0,"x_max":592,"ha":592,"o":"m 260 279 q 160 279 102 333 q 45 387 45 476 q 45 566 112 621 q 179 676 292 676 q 404 676 468 610 q 531 544 531 419 q 531 262 428 146 q 325 29 151 -16 l 127 34 q 238 82 292 140 q 346 198 369 307 q 313 279 260 279 z m 379 383 l 379 396 q 379 505 355 556 q 331 607 284 607 q 190 607 190 480 q 190 418 216 384 q 241 349 285 349 q 329 349 379 383 z"}," ":{"x_min":0,"x_max":220,"ha":220,"o":""},"I":{"x_min":0,"x_max":350,"ha":350,"o":"m 25 626 l 30 667 l 323 667 l 317 626 q 274 618 248 596 l 248 71 q 268 52 323 41 l 316 0 l 25 0 l 29 41 q 74 48 101 71 l 101 596 q 79 618 25 626 z"},"H":{"x_min":0,"x_max":722,"ha":722,"o":"m 239 373 l 468 373 l 468 596 q 442 618 399 626 l 404 667 l 682 667 l 676 628 q 637 616 615 596 l 615 71 q 638 50 690 39 l 683 0 l 407 0 l 411 41 q 444 47 468 71 l 468 310 l 239 310 l 239 71 q 262 50 314 39 l 307 0 l 31 0 l 35 41 q 68 47 92 71 l 92 596 q 71 614 31 628 l 35 667 l 314 667 l 308 626 q 265 618 239 596 z"},"4":{"x_min":0,"x_max":592,"ha":592,"o":"m 320 181 l 32 181 l 25 215 l 307 667 l 450 667 l 450 255 l 545 255 l 545 183 l 450 183 l 450 64 q 481 45 537 37 l 532 0 l 222 0 l 228 37 q 286 44 320 64 z m 320 253 l 320 527 l 155 253 z"},"~":{"x_min":0,"x_max":592,"ha":592,"o":"m 381 304 q 429 304 472 371 q 536 340 558 321 q 497 198 387 198 q 354 198 290 234 q 227 269 207 269 q 165 269 118 207 q 82 218 33 258 q 58 315 100 346 q 142 377 188 377 q 234 377 294 340 q 353 304 381 304 z"},"D":{"x_min":0,"x_max":705,"ha":705,"o":"m 260 667 q 465 667 558 587 q 651 507 651 333 q 651 159 557 80 q 463 0 254 0 l 42 0 l 46 41 q 78 48 102 70 l 102 597 q 84 614 42 628 l 46 667 z m 292 605 l 250 605 l 250 66 q 259 62 289 62 q 397 62 446 127 q 494 192 494 334 q 494 477 447 541 q 400 605 292 605 z"},"^":{"x_min":0,"x_max":592,"ha":592,"o":"m 241 667 l 346 667 l 533 351 l 447 301 l 293 570 l 140 301 l 54 351 z"},"F":{"x_min":0,"x_max":551,"ha":551,"o":"m 527 502 q 506 496 488 496 q 470 496 452 499 q 437 568 409 606 l 246 606 l 246 369 l 339 376 q 357 378 372 396 q 388 414 395 443 l 447 443 l 447 236 l 395 236 q 381 276 368 292 q 355 308 338 310 l 246 318 l 246 71 q 269 50 321 39 l 314 0 l 38 0 l 42 41 q 81 47 99 66 l 99 601 q 75 622 38 630 l 41 667 l 518 667 z"},"`":{"x_min":0,"x_max":285,"ha":285,"o":"m 87 710 q 121 710 144 676 l 224 557 l 190 524 l 73 607 q 42 629 40 663 q 40 684 53 697 q 66 710 87 710 z"},"k":{"x_min":0,"x_max":592,"ha":592,"o":"m 379 416 q 379 445 328 445 l 336 484 l 569 484 l 561 445 q 505 442 473 406 l 378 312 l 529 76 q 557 50 600 41 l 593 0 l 405 0 q 404 30 387 58 l 285 219 l 231 165 l 231 66 q 254 47 294 39 l 291 0 l 33 0 l 37 41 q 71 48 89 66 l 89 558 q 89 595 76 608 q 62 622 27 624 l 30 663 q 43 666 84 672 q 181 688 213 697 l 231 687 l 231 263 l 371 398 q 379 408 379 416 z"},"u":{"x_min":0,"x_max":597,"ha":597,"o":"m 230 -7 q 162 -7 121 34 q 80 75 80 147 l 80 354 q 80 390 66 404 q 53 417 18 419 l 21 458 q 34 461 76 468 q 172 483 204 492 l 221 483 l 221 156 q 221 60 283 60 q 309 60 334 75 q 358 90 373 115 l 373 354 q 373 390 359 404 q 345 417 310 419 l 313 458 q 326 461 368 468 q 464 483 496 492 l 514 483 l 514 62 q 536 43 583 35 l 580 0 l 389 0 l 379 64 q 321 -7 230 -7 z"},"]":{"x_min":0,"x_max":368,"ha":368,"o":"m 45 738 l 258 738 l 258 -172 l 45 -172 l 45 -118 l 158 -106 l 158 672 l 45 684 z"},"U":{"x_min":0,"x_max":676,"ha":676,"o":"m 225 208 q 225 60 365 60 q 494 60 494 223 l 494 598 q 475 613 418 626 l 423 667 l 661 667 l 655 628 q 612 615 589 596 l 589 245 q 589 152 565 100 q 541 47 482 20 q 422 -7 344 -7 q 78 -7 78 208 l 78 596 q 57 617 2 626 l 7 667 l 300 667 l 294 626 q 250 617 225 596 z"},"N":{"x_min":0,"x_max":679,"ha":679,"o":"m 595 0 l 443 0 l 179 460 l 179 71 q 202 50 254 39 l 247 0 l 31 0 l 35 41 q 68 47 92 71 l 92 596 q 71 614 31 628 l 35 667 l 232 667 l 508 183 l 508 596 q 482 618 439 626 l 444 667 l 662 667 l 656 628 q 617 616 595 596 z"},"+":{"x_min":0,"x_max":592,"ha":592,"o":"m 91 238 l 91 333 l 244 333 l 244 490 l 344 490 l 344 333 l 500 333 l 500 238 l 344 238 l 344 82 l 244 82 l 244 238 z"},"G":{"x_min":0,"x_max":646,"ha":646,"o":"m 584 66 q 478 -10 338 -10 q 199 -10 126 76 q 53 161 53 329 q 53 497 130 586 q 206 674 355 674 q 452 674 514 638 q 575 601 575 542 q 575 506 552 481 q 529 456 500 456 q 471 456 450 469 q 428 482 418 502 q 435 530 435 553 q 435 621 351 621 q 208 621 208 342 q 208 197 248 128 q 289 58 374 58 q 406 58 437 72 l 437 253 q 418 285 359 292 l 364 332 l 584 340 z"},"q":{"x_min":0,"x_max":591,"ha":591,"o":"m 367 59 q 324 -7 233 -7 q 142 -7 94 57 q 47 121 47 242 q 47 364 106 428 q 166 492 271 492 q 341 492 400 452 l 434 484 l 508 484 l 508 -145 q 529 -164 561 -172 l 558 -211 l 291 -211 l 294 -170 q 339 -163 367 -145 z m 276 53 q 367 53 367 234 l 367 408 q 338 441 298 441 q 193 441 193 247 q 193 53 276 53 z"},"d":{"x_min":0,"x_max":597,"ha":597,"o":"m 368 65 q 324 -7 232 -7 q 139 -7 92 53 q 44 113 44 235 q 44 357 102 424 q 159 492 265 492 q 318 492 364 468 l 364 558 q 364 595 349 608 q 334 622 294 624 l 297 663 q 438 683 488 697 l 505 687 l 505 62 q 526 43 565 35 l 561 0 l 381 0 z m 364 234 l 364 419 q 337 438 299 438 q 190 438 190 229 q 190 53 273 53 q 364 53 364 234 z"},"1":{"x_min":0,"x_max":592,"ha":592,"o":"m 241 557 l 107 557 l 107 615 q 256 626 356 671 l 389 656 l 389 78 q 408 67 449 58 q 490 50 514 48 l 511 0 l 103 0 l 105 48 q 194 58 241 78 z"},"5":{"x_min":0,"x_max":592,"ha":592,"o":"m 131 670 q 264 667 294 667 q 325 667 475 669 l 504 648 l 495 572 l 219 572 l 219 405 q 269 418 317 418 q 408 418 472 364 q 537 311 537 212 q 537 113 471 52 q 405 -8 302 -8 q 200 -8 138 30 q 77 67 77 125 q 77 165 99 186 q 121 208 156 208 q 191 208 223 181 q 214 160 214 132 q 214 104 234 83 q 253 62 293 62 q 383 62 383 205 q 383 348 280 348 q 222 348 153 306 l 98 359 l 98 643 z"}}}
